<svg width="22" height="16" viewBox="0 0 22 16" fill="none" xmlns="http://www.w3.org/2000/svg">
<path d="M0.400163 2.07333C0.534587 1.48432 0.865036 0.958417 1.33739 0.581744C1.80975 0.205072 2.39601 -4.06592e-05 3.00016 6.04552e-09H19.0002C19.6043 -4.06592e-05 20.1906 0.205072 20.6629 0.581744C21.1353 0.958417 21.4657 1.48432 21.6002 2.07333L11.0002 8.552L0.400163 2.07333ZM0.333496 3.596V13.068L8.07083 8.324L0.333496 3.596ZM9.34816 9.10667L0.588163 14.476C0.804598 14.9324 1.1462 15.3179 1.5732 15.5877C2.00021 15.8575 2.49506 16.0005 3.00016 16H19.0002C19.5052 16.0001 19.9998 15.8568 20.4266 15.5868C20.8534 15.3168 21.1947 14.9311 21.4108 14.4747L12.6508 9.10533L11.0002 10.1147L9.34816 9.10667ZM13.9295 8.32533L21.6668 13.068V3.596L13.9295 8.324V8.32533Z" fill="#FDC832"/>
</svg>
