<svg width="32" height="33" viewBox="0 0 32 33" fill="none" xmlns="http://www.w3.org/2000/svg">
<path d="M16 0.953125C11.658 0.953125 11.112 0.973125 9.406 1.04913C7.7 1.12912 6.538 1.39712 5.52 1.79312C4.45219 2.19476 3.48498 2.82478 2.686 3.63913C1.87215 4.43852 1.24221 5.4056 0.84 6.47312C0.444 7.48913 0.174 8.65312 0.096 10.3531C0.02 12.0631 0 12.6071 0 16.9551C0 21.2991 0.02 21.8431 0.096 23.5491C0.176 25.2531 0.444 26.4151 0.84 27.4331C1.25 28.4851 1.796 29.3771 2.686 30.2671C3.574 31.1571 4.466 31.7051 5.518 32.1131C6.538 32.5091 7.698 32.7791 9.402 32.8571C11.11 32.9331 11.654 32.9531 16 32.9531C20.346 32.9531 20.888 32.9331 22.596 32.8571C24.298 32.7771 25.464 32.5091 26.482 32.1131C27.5491 31.7113 28.5156 31.0813 29.314 30.2671C30.204 29.3771 30.75 28.4851 31.16 27.4331C31.554 26.4151 31.824 25.2531 31.904 23.5491C31.98 21.8431 32 21.2991 32 16.9531C32 12.6071 31.98 12.0631 31.904 10.3551C31.824 8.65313 31.554 7.48913 31.16 6.47312C30.7578 5.40558 30.1279 4.43848 29.314 3.63913C28.5153 2.82448 27.548 2.19442 26.48 1.79312C25.46 1.39712 24.296 1.12712 22.594 1.04913C20.886 0.973125 20.344 0.953125 15.996 0.953125H16.002H16ZM14.566 3.83713H16.002C20.274 3.83713 20.78 3.85113 22.466 3.92913C24.026 3.99913 24.874 4.26113 25.438 4.47913C26.184 4.76912 26.718 5.11713 27.278 5.67712C27.838 6.23712 28.184 6.76912 28.474 7.51713C28.694 8.07912 28.954 8.92713 29.024 10.4871C29.102 12.1731 29.118 12.6791 29.118 16.9491C29.118 21.2191 29.102 21.7271 29.024 23.4131C28.954 24.9731 28.692 25.8191 28.474 26.3831C28.2175 27.0778 27.8081 27.706 27.276 28.2211C26.716 28.7811 26.184 29.1271 25.436 29.4171C24.876 29.6371 24.028 29.8971 22.466 29.9691C20.78 30.0451 20.274 30.0631 16.002 30.0631C11.73 30.0631 11.222 30.0451 9.536 29.9691C7.976 29.8971 7.13 29.6371 6.566 29.4171C5.871 29.161 5.24225 28.7523 4.726 28.2211C4.1935 27.7052 3.78345 27.0764 3.526 26.3811C3.308 25.8191 3.046 24.9711 2.976 23.4111C2.9 21.7251 2.884 21.2191 2.884 16.9451C2.884 12.6731 2.9 12.1691 2.976 10.4831C3.048 8.92312 3.308 8.07513 3.528 7.51113C3.818 6.76513 4.166 6.23112 4.726 5.67112C5.286 5.11112 5.818 4.76513 6.566 4.47513C7.13 4.25513 7.976 3.99513 9.536 3.92313C11.012 3.85512 11.584 3.83513 14.566 3.83313V3.83713ZM24.542 6.49312C24.2899 6.49312 24.0402 6.54279 23.8072 6.63928C23.5743 6.73577 23.3626 6.87719 23.1844 7.05548C23.0061 7.23377 22.8646 7.44543 22.7682 7.67837C22.6717 7.91132 22.622 8.16099 22.622 8.41313C22.622 8.66526 22.6717 8.91493 22.7682 9.14788C22.8646 9.38082 23.0061 9.59248 23.1844 9.77077C23.3626 9.94906 23.5743 10.0905 23.8072 10.187C24.0402 10.2835 24.2899 10.3331 24.542 10.3331C25.0512 10.3331 25.5396 10.1308 25.8996 9.77077C26.2597 9.4107 26.462 8.92234 26.462 8.41313C26.462 7.90391 26.2597 7.41555 25.8996 7.05548C25.5396 6.69541 25.0512 6.49312 24.542 6.49312ZM16.002 8.73712C14.9121 8.72012 13.8298 8.9201 12.818 9.32541C11.8061 9.73072 10.885 10.3333 10.1083 11.098C9.33157 11.8627 8.71473 12.7743 8.29368 13.7796C7.87264 14.785 7.6558 15.8641 7.6558 16.9541C7.6558 18.0441 7.87264 19.1232 8.29368 20.1286C8.71473 21.134 9.33157 22.0456 10.1083 22.8103C10.885 23.575 11.8061 24.1775 12.818 24.5828C13.8298 24.9882 14.9121 25.1881 16.002 25.1711C18.1591 25.1375 20.2164 24.257 21.73 22.7196C23.2435 21.1823 24.0918 19.1115 24.0918 16.9541C24.0918 14.7968 23.2435 12.726 21.73 11.1886C20.2164 9.6513 18.1591 8.77078 16.002 8.73712ZM16.002 11.6191C17.4167 11.6191 18.7734 12.1811 19.7737 13.1814C20.774 14.1817 21.336 15.5385 21.336 16.9531C21.336 18.3678 20.774 19.7245 19.7737 20.7248C18.7734 21.7252 17.4167 22.2871 16.002 22.2871C14.5873 22.2871 13.2306 21.7252 12.2303 20.7248C11.23 19.7245 10.668 18.3678 10.668 16.9531C10.668 15.5385 11.23 14.1817 12.2303 13.1814C13.2306 12.1811 14.5873 11.6191 16.002 11.6191Z" fill="white"/>
</svg>
