<svg width="22" height="16" viewBox="0 0 22 16" fill="none" xmlns="http://www.w3.org/2000/svg">
<path d="M9.99984 16C9.99984 16 8.6665 16 8.6665 14.6667C8.6665 13.3333 9.99984 9.33333 15.3332 9.33333C20.6665 9.33333 21.9998 13.3333 21.9998 14.6667C21.9998 16 20.6665 16 20.6665 16H9.99984ZM15.3332 8C16.394 8 17.4115 7.57857 18.1616 6.82843C18.9117 6.07828 19.3332 5.06087 19.3332 4C19.3332 2.93913 18.9117 1.92172 18.1616 1.17157C17.4115 0.421427 16.394 0 15.3332 0C14.2723 0 13.2549 0.421427 12.5047 1.17157C11.7546 1.92172 11.3332 2.93913 11.3332 4C11.3332 5.06087 11.7546 6.07828 12.5047 6.82843C13.2549 7.57857 14.2723 8 15.3332 8Z" fill="#FDC832"/>
<path fill-rule="evenodd" clip-rule="evenodd" d="M7.62117 16.0001C7.42351 15.5839 7.32494 15.1275 7.33317 14.6668C7.33317 12.8601 8.23984 11.0001 9.9145 9.70679C9.07863 9.44924 8.20777 9.32329 7.33317 9.33346C1.99984 9.33346 0.666504 13.3335 0.666504 14.6668C0.666504 16.0001 1.99984 16.0001 1.99984 16.0001H7.62117Z" fill="#FDC832"/>
<path d="M6.66634 8.00004C7.5504 8.00004 8.39824 7.64885 9.02336 7.02373C9.64849 6.39861 9.99967 5.55076 9.99967 4.66671C9.99967 3.78265 9.64849 2.93481 9.02336 2.30968C8.39824 1.68456 7.5504 1.33337 6.66634 1.33337C5.78229 1.33337 4.93444 1.68456 4.30932 2.30968C3.6842 2.93481 3.33301 3.78265 3.33301 4.66671C3.33301 5.55076 3.6842 6.39861 4.30932 7.02373C4.93444 7.64885 5.78229 8.00004 6.66634 8.00004Z" fill="#FDC832"/>
</svg>
