<svg width="17" height="16" viewBox="0 0 17 16" fill="none" xmlns="http://www.w3.org/2000/svg">
<path d="M16.3335 8C16.3335 10.1217 15.4906 12.1566 13.9904 13.6569C12.4901 15.1571 10.4552 16 8.3335 16C6.21176 16 4.17693 15.1571 2.67664 13.6569C1.17635 12.1566 0.333496 10.1217 0.333496 8C0.333496 5.87827 1.17635 3.84344 2.67664 2.34315C4.17693 0.842855 6.21176 0 8.3335 0C10.4552 0 12.4901 0.842855 13.9904 2.34315C15.4906 3.84344 16.3335 5.87827 16.3335 8ZM8.3335 3.5C8.3335 3.36739 8.28082 3.24021 8.18705 3.14645C8.09328 3.05268 7.9661 3 7.8335 3C7.70089 3 7.57371 3.05268 7.47994 3.14645C7.38617 3.24021 7.3335 3.36739 7.3335 3.5V9C7.33352 9.08813 7.35685 9.17469 7.4011 9.25091C7.44536 9.32712 7.50897 9.39029 7.5855 9.434L11.0855 11.434C11.2004 11.4961 11.3349 11.5108 11.4605 11.4749C11.586 11.4391 11.6926 11.3556 11.7573 11.2422C11.8221 11.1288 11.84 10.9946 11.8071 10.8683C11.7743 10.7419 11.6933 10.6334 11.5815 10.566L8.3335 8.71V3.5Z" fill="#FDC832"/>
</svg>
