<svg width="32" height="27" viewBox="0 0 32 27" fill="none" xmlns="http://www.w3.org/2000/svg">
<path d="M10.052 26.954C22.128 26.954 28.734 16.948 28.734 8.28602C28.734 8.00602 28.734 7.72202 28.722 7.44202C30.0081 6.51099 31.1181 5.35833 32 4.03802C30.7986 4.56772 29.5255 4.91683 28.222 5.07402C29.5951 4.2533 30.6234 2.96196 31.116 1.44002C29.826 2.20427 28.414 2.74077 26.942 3.02602C25.9524 1.97207 24.6428 1.27386 23.2162 1.03954C21.7895 0.805218 20.3254 1.04787 19.0507 1.7299C17.7759 2.41193 16.7616 3.49528 16.1649 4.81214C15.5682 6.12901 15.4224 7.60589 15.75 9.01402C13.1395 8.88313 10.5856 8.20496 8.25409 7.02351C5.92254 5.84206 3.86537 4.18371 2.216 2.15602C1.37868 3.60219 1.12315 5.31282 1.50129 6.94055C1.87944 8.56829 2.86291 9.99108 4.252 10.92C3.21108 10.8847 2.19304 10.6051 1.28 10.104V10.194C1.28179 11.709 1.80661 13.1769 2.76575 14.3495C3.72488 15.5222 5.0595 16.3278 6.544 16.63C5.98053 16.7853 5.39846 16.8626 4.814 16.86C4.40197 16.8613 3.99076 16.8231 3.586 16.746C4.00557 18.0501 4.82255 19.1904 5.92249 20.007C7.02244 20.8236 8.35027 21.2757 9.72 21.3C7.39311 23.1276 4.5188 24.1188 1.56 24.114C1.03864 24.1162 0.517646 24.0862 0 24.024C3.00303 25.9385 6.4906 26.9551 10.052 26.954Z" fill="white"/>
</svg>
